<?xml version="1.0" encoding="UTF-8"?>
<svg version="1.1" xmlns="http://www.w3.org/2000/svg" width="274" height="229">
<path d="M0 0 C90.42 0 180.84 0 274 0 C274 75.57 274 151.14 274 229 C183.58 229 93.16 229 0 229 C0 153.43 0 77.86 0 0 Z " fill="#FEFDFD" transform="translate(0,0)"/>
<path d="M0 0 C4.02501236 1.34167079 4.81344639 3.82708842 6.6875 7.375 C22.85298156 36.67214689 48.18702303 58.67699223 77 75 C77.66322266 75.38027344 78.32644531 75.76054688 79.00976562 76.15234375 C103.61276772 90.04871277 139.50512145 97.78773065 167.1875 90.1875 C171.32206389 88.80223533 175.12863168 87.00164081 179 85 C178.54325197 117.42911029 165.19237334 144.72550962 142.06640625 167.3046875 C118.43598777 188.76157158 89.32029627 195.0341487 58.29882812 194.17480469 C40.10958661 193.21095796 21.67374271 185.63846346 7 175 C6.505 174.01 6.505 174.01 6 173 C6.77899658 172.90501221 7.55799316 172.81002441 8.3605957 172.7121582 C44.16357606 168.26941412 80.31563797 159.7387983 105 131 C105 130.34 105 129.68 105 129 C104.09628662 128.54113403 104.09628662 128.54113403 103.17431641 128.07299805 C77.36482797 114.91843718 52.634962 100.41377257 31 81 C29.64684567 79.85297133 28.2928392 78.70694617 26.9375 77.5625 C9.8361489 62.43438172 -9.36172226 42.01621231 -17 20 C-16.66786774 13.10493427 -7.91326712 6.68128218 -3.125 2.3125 C-2.09375 1.549375 -1.0625 0.78625 0 0 Z " fill="#201B18" transform="translate(71,31)"/>
<path d="M0 0 C1.59135349 1.34473264 3.17479355 2.69888845 4.75 4.0625 C5.55824219 4.71476562 6.36648437 5.36703125 7.19921875 6.0390625 C14.76577994 12.38214519 20.16582538 20.00472711 25.75 28.0625 C22.26741714 29.22336095 19.72463983 29.02148559 16.0625 28.875 C8.38069203 28.85921006 4.14732236 29.86537699 -1.4375 35.12109375 C-7.99526031 42.06529351 -9.72012238 47.45515406 -9.578125 56.9453125 C-8.99287802 62.50515883 -7.25676699 68.05573301 -3.25 72.0625 C-3.28480469 71.216875 -3.31960937 70.37125 -3.35546875 69.5 C-3.61102829 58.79083851 -2.37656297 52.6569413 4.98046875 44.7578125 C11.29761179 38.70562689 17.88104259 38.69734867 26.26953125 38.79296875 C33.12302759 39.32371089 36.93982137 41.93583093 41.5625 46.875 C46.48680891 52.99103664 48.36484482 58.39570316 48.0859375 66.2265625 C47.0941255 74.59930098 43.68744255 79.83423473 37.45703125 85.37109375 C29.50849386 90.3374959 21.55776794 90.54423282 12.375 90.4375 C11.14072266 90.42952393 9.90644531 90.42154785 8.63476562 90.41333008 C-1.55192839 90.25623439 -11.30145394 89.21005037 -21.25 87.0625 C-22.34957031 86.83433594 -23.44914062 86.60617188 -24.58203125 86.37109375 C-27.51022366 85.69948999 -30.37134687 84.92097658 -33.25 84.0625 C-34.28511719 83.76085937 -35.32023437 83.45921875 -36.38671875 83.1484375 C-74.39051417 70.87775791 -105.79723081 40.42607974 -126.25 7.0625 C-126.86875 6.18722656 -127.4875 5.31195312 -128.125 4.41015625 C-129.25 2.0625 -129.25 2.0625 -128.8125 -0.00390625 C-120.63386288 -10.12496969 -103.34646029 -15.73186953 -91.25 -18.9375 C-90.14269531 -19.23914063 -89.03539062 -19.54078125 -87.89453125 -19.8515625 C-57.53326559 -27.06278431 -24.45082521 -19.23873707 0 0 Z " fill="#FEB640" transform="translate(207.25,22.9375)"/>
<path d="M0 0 C3.19279926 2.68507583 4.73356859 6.15510043 6.5625 9.8125 C29.67934473 54.35721364 73.96175604 83.17511348 117 106 C113.12535602 110.92708227 109.20796052 114.67893479 103.9375 118.0625 C103.28338135 118.48877686 102.6292627 118.91505371 101.95532227 119.35424805 C84.53358989 130.46073418 60.89349972 139.27078833 40 140 C38.76894531 140.14308594 37.53789063 140.28617188 36.26953125 140.43359375 C29.66480078 141.03896826 24.48341686 141.17465894 19.11181641 136.72436523 C16.55473404 134.29618669 14.2530591 131.70982593 12 129 C11.33145996 128.22221191 11.33145996 128.22221191 10.64941406 127.42871094 C-3.97177943 110.25068861 -15.14279011 87.85893027 -16 65 C-16.0515625 63.783125 -16.103125 62.56625 -16.15625 61.3125 C-16.76961015 39.46763962 -11.62085866 18.60045974 0 0 Z " fill="#EE9A1A" transform="translate(53,50)"/>
<path d="M0 0 C6.12092762 2.88355839 10.84644671 6.67101524 16 11 C16.81855469 11.65871094 17.63710937 12.31742188 18.48046875 12.99609375 C26.02664057 19.34255622 31.42279143 26.95227889 37 35 C33.51741714 36.16086095 30.97463983 35.95898559 27.3125 35.8125 C19.63069203 35.79671006 15.39732236 36.80287699 9.8125 42.05859375 C3.25473969 49.00279351 1.52987762 54.39265406 1.671875 63.8828125 C2.25712198 69.44265883 3.99323301 74.99323301 8 79 C7.96519531 78.154375 7.93039063 77.30875 7.89453125 76.4375 C7.63897171 65.72833851 8.87343703 59.5944413 16.23046875 51.6953125 C22.54761179 45.64312689 29.13104259 45.63484867 37.51953125 45.73046875 C44.37302759 46.26121089 48.18982137 48.87333093 52.8125 53.8125 C57.73680891 59.92853664 59.61484482 65.33320316 59.3359375 73.1640625 C58.3441255 81.53680098 54.93744255 86.77173473 48.70703125 92.30859375 C40.75849386 97.2749959 32.80776794 97.48173282 23.625 97.375 C22.39072266 97.36702393 21.15644531 97.35904785 19.88476562 97.35083008 C9.70038833 97.19377012 -0.05447975 96.15486272 -10 94 C-11.134375 93.76023437 -12.26875 93.52046875 -13.4375 93.2734375 C-27.22840691 90.07197697 -27.22840691 90.07197697 -33 87 C-34.3046875 84.87109375 -34.3046875 84.87109375 -35 83 C-33.515 82.505 -33.515 82.505 -32 82 C-31.30186493 80.68287068 -30.63950169 79.34657336 -30 78 C-28.84655901 76.67783023 -27.65459867 75.38881559 -26.4375 74.125 C-10.57335451 56.61675215 -1.16116741 33.47338684 -0.375 9.9375 C-0.33632812 8.97650391 -0.29765625 8.01550781 -0.2578125 7.02539062 C-0.16461374 4.68377186 -0.07880815 2.34213963 0 0 Z " fill="#EE9B1D" transform="translate(196,16)"/>
<path d="M0 0 C3.19279926 2.68507583 4.73356859 6.15510043 6.5625 9.8125 C19.87643249 35.46761501 42.00331715 58.9134888 66.19921875 74.4921875 C66.79347656 74.98976563 67.38773437 75.48734375 68 76 C68 76.99 68 77.98 68 79 C49.81847322 88.33078355 30.05994652 95.10609649 10 99 C9.25379395 99.14663086 8.50758789 99.29326172 7.73876953 99.44433594 C3.16598534 100.336072 -1.41293656 101.18507083 -6 102 C-11.31890961 90.49022839 -15.52090135 77.77596408 -16 65 C-16.0515625 63.783125 -16.103125 62.56625 -16.15625 61.3125 C-16.76961015 39.46763962 -11.62085866 18.60045974 0 0 Z " fill="#FEB540" transform="translate(53,50)"/>
<path d="M0 0 C4.02501236 1.34167079 4.81344639 3.82708842 6.6875 7.375 C22.14772413 35.39398946 45.96889501 56.6720886 73.26953125 72.7578125 C75.98037858 74.35807185 78.540442 76.02460696 81 78 C74.73289553 83.08948441 68.41346208 87.01909425 61.125 90.4375 C60.39998291 90.77910156 59.67496582 91.12070313 58.92797852 91.47265625 C51.43743622 94.88778129 51.43743622 94.88778129 48 95 C45.78125 93.734375 45.78125 93.734375 43.5 91.75 C42.62730469 91.00363281 41.75460938 90.25726563 40.85546875 89.48828125 C39.91316406 88.66714844 38.97085938 87.84601563 38 87 C36.47320362 85.75440348 34.94640251 84.50881274 33.41943359 83.26342773 C13.84363941 67.11086952 -8.46628023 44.59719227 -17 20 C-16.66786774 13.10493427 -7.91326712 6.68128218 -3.125 2.3125 C-2.09375 1.549375 -1.0625 0.78625 0 0 Z " fill="#3A3532" transform="translate(71,31)"/>
<path d="M0 0 C6.13512272 4.91084935 11.06736965 10.92850669 12.0546875 18.92578125 C12.409539 26.82122718 11.02993172 33.73262211 5.6484375 39.7265625 C-1.87578519 46.68646849 -8.25193829 48.13496286 -18.296875 47.83203125 C-25.87864192 46.99459743 -30.04918888 43.16060352 -34.6953125 37.39453125 C-39.06906825 30.9732278 -39.99476661 25.04934487 -39.2578125 17.39453125 C-37.72613397 9.76398728 -32.78276415 3.93577546 -26.5703125 -0.54296875 C-18.76858544 -4.12754605 -7.4474113 -4.52278412 0 0 Z " fill="#211C19" transform="translate(243.2578125,64.60546875)"/>
</svg>
